<svg width="24" height="24" viewBox="0 0 24 24" fill="none" xmlns="http://www.w3.org/2000/svg">
<path d="M23.9527 11.953C22.3068 11.953 20.7862 11.6414 19.3394 11.027C17.8917 10.3924 16.6146 9.52753 15.544 8.45674C14.4732 7.38596 13.6083 6.10898 12.9739 4.66139C12.3592 3.21406 12.0477 1.69332 12.0477 0.0472811C12.0477 0.0211451 12.0265 0 12.0004 0C11.9743 0 11.9531 0.0211451 11.9531 0.0472811C11.9531 1.69306 11.6315 3.21354 10.997 4.66139C10.3822 6.10898 9.52761 7.38596 8.45683 8.45674C7.38631 9.52753 6.10921 10.3922 4.66176 11.0267C3.21431 11.6414 1.69331 11.9532 0.0472808 11.9532C0.021145 11.9532 0 11.9743 0 12.0005C0 12.0266 0.021145 12.0477 0.0472808 12.0477C1.69292 12.0477 3.21391 12.3694 4.66176 13.004C6.10947 13.619 7.38644 14.4737 8.45683 15.544C9.52761 16.6151 10.3823 17.8919 10.9971 19.3399C11.6315 20.787 11.9531 22.3069 11.9531 23.9527C11.9531 23.9789 11.9743 24 12.0004 24C12.0265 24 12.0477 23.9789 12.0477 23.9527C12.0477 22.3066 12.3592 20.7866 12.9737 19.3399C13.6083 17.8919 14.4731 16.6148 15.544 15.544C16.6143 14.4734 17.8912 13.6188 19.3394 13.0039C20.7867 12.3695 22.3071 12.0477 23.9527 12.0477C23.9789 12.0477 24 12.0266 24 12.0005C24 11.9743 23.9789 11.953 23.9527 11.953Z" fill="url(#paint0_linear_50_102)"/>
<defs>
<linearGradient id="paint0_linear_50_102" x1="7.46937" y1="15.5133" x2="18.3261" y2="6.3599" gradientUnits="userSpaceOnUse">
<stop stop-color="#217BFE"/>
<stop offset="0.27" stop-color="#078EFB"/>
<stop offset="0.776981" stop-color="#A190FF"/>
<stop offset="1" stop-color="#BD99FE"/>
</linearGradient>
</defs>
</svg>
